<svg width="274" height="255" viewBox="0 0 274 255" fill="none" xmlns="http://www.w3.org/2000/svg">
<g clip-path="url(#clip0_1_2)">
<rect width="274" height="255" fill="white"/>
<path d="M78.3416 189.507C80.7998 187.81 139.166 148.441 198.334 189.507L208.568 176.729C139.006 128.429 68.7919 176.254 68.0896 176.736L78.3416 189.507Z" fill="#DFDDDD"/>
<path d="M77.263 119.049L93.0756 104.331L108.888 119.049L120.996 107.78L105.183 93.063L120.996 78.3454L108.888 67.077L93.0756 81.7941L77.263 67.077L65.1555 78.3454L80.9681 93.063L65.1555 107.78L77.263 119.049Z" fill="#DFDDDD"/>
<path d="M165.112 119.049L180.924 104.331L196.737 119.049L208.844 107.78L193.032 93.063L208.844 78.3454L196.737 67.077L180.924 81.7941L165.112 67.077L153.004 78.3454L168.817 93.063L153.004 107.78L165.112 119.049Z" fill="#DFDDDD"/>
<path d="M38.6318 255H235.369C256.666 255 274 238.868 274 219.047V35.9529C274 16.128 256.666 0 235.368 0H38.6318C17.3341 0 0 16.128 0 35.9529V219.048C0 238.868 17.3341 255 38.6318 255ZM17.125 35.9529C17.125 24.9182 26.7743 15.9375 38.6318 15.9375H235.369C247.226 15.9375 256.876 24.9182 256.876 35.9529V219.048C256.876 230.082 247.226 239.063 235.369 239.063H38.6318C26.7748 239.063 17.125 230.082 17.125 219.048V35.9529Z" fill="#DFDDDD"/>
</g>
<defs>
<clipPath id="clip0_1_2">
<rect width="274" height="255" fill="white"/>
</clipPath>
</defs>
</svg>
